<?xml version="1.0" encoding="utf-8"?>
<!-- Generator: Adobe Illustrator 16.0.0, SVG Export Plug-In . SVG Version: 6.00 Build 0)  -->
<!DOCTYPE svg PUBLIC "-//W3C//DTD SVG 1.1//EN" "http://www.w3.org/Graphics/SVG/1.1/DTD/svg11.dtd">
<svg version="1.1" id="Ñëîé_1" xmlns="http://www.w3.org/2000/svg" xmlns:xlink="http://www.w3.org/1999/xlink" x="0px" y="0px"
	 width="800px" height="800px" viewBox="0 0 800 800" enable-background="new 0 0 800 800" xml:space="preserve">
<g>
	<g>
		<path fill="#0D172B" d="M572.512,763.978H552.09c0.323-5.361,4.77-9.603,10.217-9.603S572.189,758.616,572.512,763.978z"/>
		<circle fill="#0D172B" cx="562.303" cy="766.9" r="7.937"/>
		<path fill="#0D172B" d="M511.531,766.9c0,4.38-3.55,7.939-7.939,7.939c-0.62,0-1.23-0.07-1.811-0.21h-0.01
			c-3.5-0.83-6.109-3.979-6.109-7.729c0-4.381,3.55-7.94,7.93-7.94c3.689,0,6.79,2.51,7.68,5.92
			C511.441,765.52,511.531,766.2,511.531,766.9z"/>
		<rect x="481.896" y="615" fill="#383F53" width="22.971" height="121.665"/>
		<path fill="#0D172B" d="M506.859,744.383h-27.436v-35.216c0-1.249,1.013-2.261,2.262-2.261h22.913
			c1.249,0,2.261,1.012,2.261,2.261V744.383z"/>
		<polygon fill="#0D172B" points="417.049,755.828 488.551,755.828 488.551,741.15 417.049,749.15 		"/>
		<polygon fill="#0D172B" points="569.732,755.828 498.229,755.828 498.229,741.15 569.732,749.15 		"/>
		<polygon fill="#0D172B" points="486.018,740.123 486.018,755.828 502.761,762.179 503.148,751.151 498.229,741.15 		"/>
		<polygon fill="#1B2B44" points="502.761,762.179 511.437,762.179 511.437,751.151 503.148,742.734 488.551,742.734 
			503.148,751.151 		"/>
		<path fill="#262C38" d="M504.867,637.971L504.867,637.971c-6.344-6.344-16.627-6.344-22.971,0l0,0V615h22.971V637.971z"/>
		<path fill="#383F53" d="M511.8,629.667h-36.836c-6.334,0-11.468-5.135-11.468-11.468v-5.201h59.771v5.201
			C523.268,624.532,518.134,629.667,511.8,629.667z"/>
		<path fill="#0D172B" d="M433.468,763.978h-20.422c0.323-5.361,4.769-9.603,10.216-9.603S433.145,758.616,433.468,763.978z"/>
		<path fill="#0D172B" d="M513.804,763.978h-20.422c0.323-5.361,4.769-9.603,10.217-9.603
			C509.046,754.375,513.48,758.616,513.804,763.978z"/>
		<path fill="#1B2B44" d="M504.057,753.958l-1.022,0.443c0,0,4.144,3.929,1.833,9.576h8.937
			C513.804,763.978,514.974,755.208,504.057,753.958z"/>
		<path fill="#1B2B44" d="M511.531,766.9c0,4.38-3.55,7.939-7.939,7.939c-0.62,0-1.23-0.07-1.811-0.21l0.82-0.01
			c5.25,0.13,7.41-5.811,3.91-9.74h4.76C511.441,765.52,511.531,766.2,511.531,766.9z"/>
	</g>
	<g>
		<g>
			<polygon fill="#262C38" points="149.62,775.69 137.74,775.69 253.538,529.771 266.846,529.771 			"/>
			<polygon fill="#262C38" points="153.051,775.69 141.171,775.69 256.969,529.771 270.276,529.771 			"/>
			<polygon fill="#262C38" points="262.787,775.69 274.667,775.69 142.313,529.771 129.006,529.771 			"/>
			<polygon fill="#262C38" points="265.886,775.69 277.766,775.69 145.413,529.771 132.105,529.771 			"/>
		</g>
		<path fill="#0D172B" d="M584.035,599.988H446.561c-6.363,0-11.568-5.206-11.568-11.569l27.203-235.106
			c0-6.363,5.206-11.569,11.568-11.569h137.475c6.362,0,11.568,5.206,11.568,11.569l-27.203,235.106
			C595.604,594.782,590.397,599.988,584.035,599.988z"/>
		<g>
			<path fill="#354263" d="M579.579,598.126l-0.363-0.479c2.796-2.119,4.465-5.569,4.465-9.229l25.237-235.139
				c-0.002-6.182-4.682-11.237-10.434-11.237h-70.336v-0.6h70.336c6.083,0,11.031,5.324,11.031,11.869l-25.237,235.139
				C584.28,592.265,582.522,595.894,579.579,598.126z"/>
		</g>
		<path fill="#0D172B" d="M587.737,599.988H387.057c-1.961,0-3.566,1.604-3.566,3.566v12.388c0,1.962,1.605,3.566,3.566,3.566
			h200.681c1.962,0,3.566-1.604,3.566-3.566v-12.388C591.304,601.593,589.699,599.988,587.737,599.988z"/>
		<g>
			<g>
				<circle fill="#0D172B" cx="358.605" cy="571.072" r="23.43"/>
				<g>
					<path fill="#0D172B" d="M361.249,594.932l131.893,11.892l-0.343-66.693l-134.723,7.913
						C356.775,563.53,359.518,579.582,361.249,594.932z"/>
					<circle fill="#0D172B" cx="495.894" cy="573.532" r="33.4"/>
				</g>
			</g>
			<path fill="#152036" d="M522.678,600.132c14.499,1.379,25.942-18.646,40.481-18.188l-8.521-45.31l-101.62-10.442L439.891,577.5
				C462.291,605.214,496.178,597.613,522.678,600.132z"/>
			<g>
				
					<linearGradient id="SVGID_1_" gradientUnits="userSpaceOnUse" x1="495.9824" y1="445.832" x2="542.1774" y2="427.0241" gradientTransform="matrix(0.9886 0.1509 -0.1509 0.9886 102.6349 -194.6356)">
					<stop  offset="0" style="stop-color:#C45E59"/>
					<stop  offset="1" style="stop-color:#F2A981"/>
				</linearGradient>
				<path fill="url(#SVGID_1_)" d="M560.253,302.02c12.714-7.849,8.402,5.313,7.846,10.218c-0.558,4.905-5.178,13.797-9.507,11.985
					C554.262,322.41,560.253,302.02,560.253,302.02z"/>
				<g>
					<path fill="#102051" d="M564.9,314.662l-0.457-0.188c0.882-2.145,3.095-8.038,2.742-9.521
						c-0.178-0.748-0.713-1.002-1.131-1.084c-0.856-0.165-1.912,0.237-2.403,0.924l-0.402-0.288c0.604-0.845,1.854-1.326,2.9-1.122
						c0.793,0.155,1.332,0.672,1.519,1.456C568.129,306.78,565.033,314.341,564.9,314.662z"/>
				</g>
				<g>
					
						<rect x="562.417" y="311.862" transform="matrix(0.8458 0.5335 -0.5335 0.8458 253.8365 -251.9171)" fill="#102051" width="0.494" height="2.491"/>
				</g>
			</g>
			<g>
				
					<linearGradient id="SVGID_2_" gradientUnits="userSpaceOnUse" x1="520.6221" y1="458.3428" x2="476.7339" y2="429.634" gradientTransform="matrix(0.9886 0.1509 -0.1509 0.9886 102.6349 -194.6356)">
					<stop  offset="0" style="stop-color:#C45E59"/>
					<stop  offset="1" style="stop-color:#F2A981"/>
				</linearGradient>
				<path fill="url(#SVGID_2_)" d="M516.9,295.402c-9.794-11.284-9.604,2.565-10.536,7.413s0.825,14.713,5.499,14.275
					C516.536,316.652,516.9,295.402,516.9,295.402z"/>
				<g>
					<path fill="#102051" d="M508.578,306.065c-0.031-0.346-0.731-8.487,0.289-10.202c0.411-0.692,1.069-1.026,1.884-0.937
						c1.063,0.117,2.109,0.95,2.434,1.937l-0.471,0.154c-0.263-0.801-1.148-1.503-2.018-1.599c-0.422-0.046-1.012,0.036-1.403,0.697
						c-0.78,1.311-0.425,7.595-0.223,9.906L508.578,306.065z"/>
				</g>
				<g>
					
						<rect x="509.931" y="305.001" transform="matrix(0.2572 0.9664 -0.9664 0.2572 674.6675 -267.2454)" fill="#102051" width="2.491" height="0.495"/>
				</g>
			</g>
			<path fill="#F2A981" d="M549.909,344.323l-3.994,26.166c-1.226,10.36-10.341,17.697-19.74,16.966
				c-10.33-0.804-18.599-11.164-16.554-22.505c1.331-8.722,2.662-17.444,3.993-26.166c1.925-9.472,10.624-15.912,19.696-15.1
				C543.186,324.568,550.947,333.814,549.909,344.323z"/>
			<g>
				<path fill="#0B131D" d="M533.636,361.198c-0.343,0-2.047-0.072-3.415-1.442c-1.238-1.239-1.816-3.146-1.718-5.668l0.568,0.022
					c-0.092,2.356,0.431,4.121,1.552,5.243c1.321,1.322,3.04,1.272,3.05,1.275l0.021,0.568
					C533.688,361.197,533.667,361.198,533.636,361.198z"/>
			</g>
			<path fill="#102051" d="M549.909,344.323l-1.685,11.035c-3.007,0.917-6.198,1.15-9.333,0.671l-10.438-1.593
				c-3.208-0.49-6.263-1.71-8.901-3.553l-0.868-0.61c-2.441-1.703-4.427-3.86-5.863-6.296l0.793-5.194L549.909,344.323z"/>
			<g>
				<path fill="#102051" d="M575.438,264.605c0.277,11.559-11.764,43.119-11.764,43.119l-23.89-3.646l-29.261-4.466
					c0,0,0.565-33.887,6.957-45.579S575.438,264.605,575.438,264.605z"/>
				<g>
					<path fill="#102051" d="M518.632,266.433c-1.271,0-2.626-0.494-3.76-1.409c-3.216-2.593-5.087-6.886-4.657-10.684
						c0.373-3.296,2.341-6.273,5.54-8.382c3.926-2.589,9.104-3.47,13.193-2.239c4.368,1.313,8.281,5.99,7.146,10.861l-0.482-0.112
						c1.073-4.6-2.652-9.026-6.806-10.275c-3.955-1.188-8.97-0.333-12.778,2.178c-3.074,2.027-4.964,4.877-5.32,8.025
						c-0.412,3.636,1.387,7.752,4.476,10.243c1.412,1.14,3.182,1.571,4.618,1.13l0.146,0.473
						C519.528,266.371,519.086,266.433,518.632,266.433z"/>
				</g>
				<g>
					<path fill="#102051" d="M515.01,263.745c-3.374-3.179-4.379-8.524-2.39-12.711c1.991-4.188,6.775-6.787,11.364-6.174
						c2.568,0.34,4.894,1.57,7.143,2.76c1.736,0.919,3.532,1.87,5.423,2.399l-0.133,0.477c-1.942-0.543-3.762-1.506-5.521-2.438
						c-2.21-1.169-4.495-2.379-6.976-2.708c-4.382-0.581-8.951,1.897-10.853,5.897c-1.899,3.998-0.94,9.103,2.282,12.138
						L515.01,263.745z"/>
				</g>
				<g>
					<path fill="#102051" d="M570.53,286.077l-0.424-0.255c3.892-6.479,5.771-14.202,5.291-21.746l0.494-0.031
						C576.377,271.688,574.473,279.513,570.53,286.077z"/>
				</g>
			</g>
			<g>
				<polygon fill="#F2A981" points="284.645,695.397 272.124,714.354 257.459,707.36 269.166,688.016 				"/>
				<path fill="#CFE6FF" d="M260.217,700.159l17.341,10.099l-5.166,10.832l-3.022-1.441l-2.285,3.397l-15.455-8.367l2.292-3.063
					c0,0-0.536,0.077-0.612-0.458C253.233,710.623,260.217,700.159,260.217,700.159z"/>
				<polygon fill="#152036" points="203.149,721.136 202.052,723.438 243.462,733.551 246.861,732.347 247.974,735.703 
					261.342,740.665 263.569,735.994 251.609,730.29 234.098,721.938 				"/>
				<polygon fill="#102051" points="272.393,721.09 253.922,711.616 267.657,722.196 268.683,720.67 				"/>
				<path fill="#153F6D" d="M267.085,723.046l0.552,4.418l-4.068,8.53l-2.116,1.649l-13.038-4.722l-0.502-1.735
					c0,0-2.412,0.179-3.289-0.073s-41.475-9.978-41.475-9.978l2.355-4.704l30.17-1.053l15.956-0.7L267.085,723.046z"/>
				<polygon fill="#152036" points="245.059,714.967 250.68,719.46 249.211,719.674 243.314,715.043 				"/>
				<polygon fill="#152036" points="241.25,715.228 246.872,719.721 245.403,719.935 239.505,715.305 				"/>
			</g>
			<path fill="#F2A981" d="M545.072,352.632L545.072,352.632c-3.084,1.148-6.41,1.491-9.664,0.994l-9.844-1.502
				c-3.028-0.462-5.903-1.638-8.389-3.429l-0.814-0.587c-5.888-4.244-8.902-11.427-7.807-18.601l9.562-62.648l21.255,0.324
				l27.698,7.147l-9.631,63.101C556.38,344.365,551.647,350.183,545.072,352.632z"/>
			
				<linearGradient id="SVGID_3_" gradientUnits="userSpaceOnUse" x1="505.0957" y1="552.5332" x2="505.0957" y2="448.2401" gradientTransform="matrix(0.9886 0.1509 -0.1509 0.9886 102.6349 -194.6356)">
				<stop  offset="0" style="stop-color:#102051"/>
				<stop  offset="1" style="stop-color:#F2A981"/>
			</linearGradient>
			<path fill="url(#SVGID_3_)" d="M558.764,328.752l-1.324,8.677c-1.059,6.938-5.794,12.757-12.368,15.203
				c-3.083,1.147-6.412,1.492-9.665,0.995l-9.842-1.502c-3.027-0.462-5.904-1.638-8.39-3.428l-0.814-0.591
				c-5.888-4.244-8.903-11.424-7.808-18.599l1.324-8.677c-0.483,3.165,11.871-1.309,22.019,2.334c2.589,0.93,4.488,1.7,9.226,0.983
				C550.398,322.744,558.345,331.497,558.764,328.752z"/>
			<g>
				<path fill="#D68056" d="M546.273,300.776c1.602-1.339,4.438-0.465,5.006-0.291c0.623,0.192,1.257,0.394,1.943,0.911
					c1.658,1.25,1.934,3.063,1.826,3.446c-0.025,0.086-0.065,0.141-0.117,0.17c-0.197,0.114-0.558-0.189-0.681-0.292
					c-0.67-0.56-1.151-1.557-1.344-1.885c-1.047-1.778-4.536-2.388-6.393-1.503c-0.277,0.132-0.833,0.448-0.915,0.34
					C545.518,301.566,545.919,301.072,546.273,300.776z"/>
				<path fill="#D68056" d="M547.367,306.062c1.45,0.573,3.431,0.83,4.945,0.777c0.553-0.019,0.879,0.485,0.429,0.669
					c-0.753,0.309-1.782,0.518-3.117,0.349c-1.604-0.202-2.471-0.789-2.938-1.339C546.407,306.19,546.88,305.87,547.367,306.062z"/>
			</g>
			<path fill="#102051" d="M555.008,298.946l-8.135-3.238c-0.63-0.251-0.94-0.972-0.689-1.602l0,0c0.251-0.63,0.972-0.94,1.602-0.69
				l8.135,3.238c0.631,0.251,0.94,0.972,0.689,1.602l0,0C556.359,298.886,555.638,299.196,555.008,298.946z"/>
			<g>
				<path fill="#D68056" d="M529.141,298.161c-1.13-1.756-4.098-1.769-4.691-1.771c-0.652-0.003-1.316,0-2.127,0.29
					c-1.955,0.698-2.76,2.347-2.771,2.744c-0.002,0.089,0.021,0.154,0.061,0.197c0.155,0.167,0.589-0.014,0.737-0.076
					c0.807-0.334,1.563-1.143,1.845-1.397c1.529-1.385,5.042-0.927,6.55,0.472c0.226,0.209,0.662,0.676,0.772,0.598
					C529.626,299.14,529.391,298.549,529.141,298.161z"/>
				<path fill="#D68056" d="M526.52,302.88c-1.556,0.114-3.522-0.232-4.952-0.734c-0.521-0.184-0.982,0.201-0.608,0.511
					c0.626,0.519,1.547,1.026,2.871,1.264c1.591,0.285,2.594-0.017,3.204-0.402C527.398,303.289,527.043,302.842,526.52,302.88z"/>
			</g>
			<path fill="#102051" d="M521.35,293.808l8.73-0.664c0.677-0.052,1.188-0.647,1.137-1.324l0,0
				c-0.052-0.676-0.647-1.188-1.324-1.136l-8.729,0.664c-0.677,0.051-1.188,0.647-1.137,1.323l0,0
				C520.078,293.349,520.674,293.86,521.35,293.808z"/>
			<g>
				<circle fill="#0B131D" cx="550.248" cy="303.374" r="2.377"/>
				
					<ellipse transform="matrix(0.9886 0.1508 -0.1508 0.9886 52.1367 -79.8095)" fill="#FFFFFF" cx="552.174" cy="303.781" rx="1.601" ry="0.844"/>
			</g>
			<g>
				<circle fill="#0B131D" cx="524.572" cy="299.455" r="2.377"/>
				
					<ellipse transform="matrix(0.9886 0.1508 -0.1508 0.9886 51.2659 -76.0422)" fill="#FFFFFF" cx="526.905" cy="299.925" rx="1.601" ry="0.844"/>
			</g>
			<g>
				<g>
					<polygon fill="#0D172B" points="376.081,587.517 335.41,564.685 259.894,693.897 283.485,705.148 294.251,697.4 
						291.909,693.704 					"/>
					<circle fill="#0D172B" cx="356.268" cy="574.631" r="23.43"/>
				</g>
				<g>
					
						<rect x="304.638" y="558.462" transform="matrix(0.8558 0.5174 -0.5174 0.8558 371.5205 -66.4508)" fill="#0B0C0F" width="0.6" height="149.256"/>
				</g>
			</g>
			<g>
				<path fill="#102051" d="M538.192,324.742c-2.664,0-5.021-0.778-6.392-1.349c-0.879-0.366-1.313-1.354-0.986-2.249l2.996-8.238
					l0.465,0.169l-2.996,8.238c-0.235,0.646,0.077,1.359,0.711,1.623c1.811,0.753,5.396,1.883,9.071,0.971l0.119,0.48
					C540.166,324.639,539.159,324.742,538.192,324.742z"/>
			</g>
			<g>
				<g>
					<path fill="#152036" d="M410.786,582.314c-2.351,0-2.033-3.629,0.291-3.629h0.412c-2.17-8.895-9.841-15.793-19.465-16.536
						c-2.912-0.225-5.735,0.135-8.353,0.979c-8.153,2.631-14.319,9.972-15.02,19.042c-0.925,11.982,8.038,22.446,20.021,23.372
						c11.982,0.925,22.446-8.038,23.372-20.021c0.084-1.083,0.084-2.154,0.011-3.207H410.786z"/>
					<g>
						<circle fill="#152036" cx="530.448" cy="581.988" r="31.074"/>
					</g>
					<path fill="#152036" d="M533.936,612.864c0.609-15.407-5.131-31.373-3.604-46.731c0.51-5.122,0.888-10.251,1.179-15.383
						c-1.916,0.191-3.771,0.243-5.67,0.071L384.4,562.908l3.371,42.544l136.941,7.546L533.936,612.864z"/>
				</g>
				<g>
					<path fill="#0B0C0F" d="M523.961,595.683c-17.146-0.239-34.519-0.174-51.322-0.107c-23.72,0.089-48.249,0.185-72.244-0.587
						l0.02-0.6c23.983,0.77,48.506,0.679,72.223,0.586c16.804-0.063,34.181-0.13,51.332,0.108L523.961,595.683z"/>
				</g>
			</g>
			<g>
				<path fill="#102051" d="M537.492,337.957c-0.348-0.576-0.77-1.095-1.253-1.543c-1.531-1.417-3.349-1.842-4.603-1.949
					l0.041-0.493c1.332,0.113,3.263,0.566,4.897,2.079c0.518,0.479,0.969,1.035,1.341,1.65L537.492,337.957z"/>
			</g>
			<g>
				<g>
					<path fill="#102051" d="M538.591,330.642c-1.149,0-2.42-0.116-3.811-0.398l0.098-0.485c7.462,1.513,11.415-1.964,11.454-1.999
						l0.332,0.367C546.527,328.25,543.809,330.642,538.591,330.642z"/>
				</g>
				<g>
					<path fill="#102051" d="M547.068,329.011c-0.049-0.041-1.189-1.017-1.431-2.662l0.49-0.072
						c0.214,1.461,1.248,2.346,1.259,2.355L547.068,329.011z"/>
				</g>
			</g>
			<g>
				<circle fill="none" stroke="#FFFFFF" stroke-width="0.647" stroke-miterlimit="10" cx="552.256" cy="305.981" r="10.433"/>
				<circle fill="none" stroke="#FFFFFF" stroke-width="0.647" stroke-miterlimit="10" cx="522.926" cy="301.504" r="10.433"/>
				<g>
					<path fill="#FFFFFF" d="M541.745,304.664c-0.04-0.031-4.095-3.084-8.381-1.287l-0.25-0.597c4.629-1.946,8.849,1.233,9.025,1.37
						L541.745,304.664z"/>
				</g>
				<g>
					
						<rect x="532.496" y="298.074" transform="matrix(0.9886 0.1509 -0.1509 0.9886 51.1862 -77.8192)" fill="#FFFFFF" width="11.822" height="0.647"/>
				</g>
			</g>
			<g>
				<polygon fill="#F2A981" points="409.15,720.089 406.912,742.696 390.678,743.348 392.015,720.775 				"/>
				<path fill="#CFE6FF" d="M389.76,735.69l20.049,0.848l0.48,11.991l-3.346,0.135l-0.438,4.07l-17.573-0.196l0.599-3.777
					c0,0-0.438,0.318-0.755-0.12C388.46,748.203,389.76,735.69,389.76,735.69z"/>
				<polygon fill="#152036" points="348.386,772.179 348.488,774.727 390.507,773.043 392.953,770.393 395.502,772.843 409.642,771 
					409.434,765.828 396.194,766.359 376.809,767.137 				"/>
				<polygon fill="#102051" points="410.29,748.529 389.533,748.761 406.616,751.717 406.813,749.889 				"/>
				<path fill="#153F6D" d="M406.507,752.734l2.549,3.651l0.378,9.442l-1.103,2.446l-13.735,1.902l-1.253-1.301
					c0,0-2.05,1.283-2.944,1.469c-0.893,0.186-42.012,1.834-42.012,1.834l-0.109-5.26l26.869-6.321l13.789-8.06L406.507,752.734z"/>
				<polygon fill="#152036" points="383.255,755.857 390.323,757.212 389.123,758.085 381.747,756.739 				"/>
				<polygon fill="#152036" points="380.007,757.864 387.075,759.219 385.875,760.092 378.499,758.746 				"/>
			</g>
			<g>
				
					<rect x="404.565" y="513.028" transform="matrix(0.0488 0.9988 -0.9988 0.0488 936.0358 120.2847)" fill="#0B0C0F" width="0.6" height="77.117"/>
			</g>
			<g>
				<g>
					<g>
						<polygon fill="#152036" points="413.942,588.024 414.054,600.078 413.095,731.823 383.319,731.823 371.43,599.071 
							370.553,587.434 						"/>
						<path fill="#152036" d="M393.802,563.925c-11.99-0.822-22.376,8.232-23.198,20.223c-0.2,2.914,0.184,5.733,1.052,8.344
							c2.701,8.13,10.095,14.231,19.171,14.854c2.16,0.148,4.266-0.029,6.275-0.481c-0.271-0.532-0.528-1.07-0.82-1.594
							c-1.143-2.052,2.164-3.576,3.299-1.539c0.369,0.663,0.702,1.342,1.038,2.019c7.396-3.061,12.821-10.099,13.406-18.627
							C414.847,575.132,405.793,564.746,393.802,563.925z"/>
					</g>
					<g>
						<path fill="#0B0C0F" d="M402.794,731.837c-1.695-36.314-1.109-73.399-0.543-109.264c0.16-10.125,0.326-20.595,0.438-30.918
							l0.6,0.006c-0.112,10.325-0.277,20.796-0.438,30.922c-0.566,35.854-1.152,72.93,0.542,109.227L402.794,731.837z"/>
					</g>
				</g>
			</g>
			<g>
				<g>
					<path fill="#356AB0" d="M488.017,363.055c-10.745-1.928-20.203,4.947-22.968,13.992
						c-4.021,13.156-30.057,112.682-18.926,128.983s27.005,4.818,38.624-31.698c5.743-18.047,17.181-65.886,15.934-88.317
						C500.146,376.381,488.017,363.055,488.017,363.055z"/>
					
						<ellipse transform="matrix(0.9886 0.1509 -0.1509 0.9886 63.3479 -68.4103)" fill="#356AB0" cx="482.473" cy="383.235" rx="18.418" ry="20.924"/>
				</g>
				<g>
					
						<rect x="467.358" y="478.314" transform="matrix(0.0229 0.9997 -0.9997 0.0229 939.0656 -3.6679)" fill="#102051" width="8.102" height="0.527"/>
				</g>
				
					<ellipse transform="matrix(0.9886 0.1509 -0.1509 0.9886 80.3217 -63.4478)" fill="#356AB0" cx="458.297" cy="497.616" rx="13.858" ry="15.744"/>
			</g>
			<g>
				<path fill="#356AB0" d="M595.903,384.269c0,0,32.792,80.046,35.39,124.621l-23.014,23.117
					c-20.275-7.67-29.615-60.921-34.723-81.936c-1.511-6.216-1.977-12.64-1.401-19.014l0,0l-11.401-34.599L595.903,384.269z"/>
				<g>
					<path fill="#102051" d="M580.721,478.733c-3.419-9.583-10.998-34.248-7.53-56.245l0.5,0.078
						c-3.45,21.883,4.101,46.45,7.507,55.997L580.721,478.733z"/>
				</g>
				<g>
					<path fill="#4F2E4D" d="M571.895,431.187c-0.727-1.476-1.191-4.366-1.684-7.428c-0.464-2.886-0.943-5.87-1.632-7.267
						l0.521-0.258c0.728,1.476,1.192,4.369,1.685,7.433c0.464,2.884,0.943,5.865,1.631,7.262L571.895,431.187z"/>
				</g>
				
					<ellipse transform="matrix(0.9886 0.1509 -0.1509 0.9886 65.9233 -82.8973)" fill="#356AB0" cx="579.225" cy="392.962" rx="18.794" ry="18.841"/>
				
					<ellipse transform="matrix(0.9886 0.1509 -0.1509 0.9886 84.6293 -86.7039)" fill="#356AB0" cx="613.725" cy="514.386" rx="18.396" ry="18.444"/>
			</g>
			<g>
				<g>
					<g>
						<polygon fill="#F2A981" points="433.094,525.099 374.299,496.506 378.388,486.655 445.244,506.285 						"/>
						<path fill="#F2A981" d="M434.62,525.635c-4.089-1.437-5.533-7.11-3.224-12.674c2.309-5.563,7.495-8.907,11.585-7.471
							s5.533,7.11,3.225,12.674C443.897,523.727,438.71,527.071,434.62,525.635z"/>
						<path fill="#F2A981" d="M373.831,497.635c-2.242-0.787-3.033-3.897-1.768-6.947c1.266-3.049,4.109-4.883,6.351-4.095
							c2.242,0.787,3.033,3.897,1.768,6.947C378.916,496.589,376.072,498.423,373.831,497.635z"/>
					</g>
					<g>
						<path fill="#356AB0" d="M466.172,511.822c-28.691-13.221-79.541-28.067-79.541-28.067l-6.286,19.578
							c0,0,5.583,3.239,7.657,5.697c1.946,2.306,2.3,0.259,6.654,2.34c7.534,3.601,25.751,11.819,42.255,19.515
							c5.382,2.51,14.178,3.88,18.858,6.001l8.903-2.962L466.172,511.822z"/>
						<path fill="#356AB0" d="M454.396,536.961c-5.188-1.822-7.02-9.021-4.091-16.078c2.929-7.058,9.51-11.302,14.698-9.479
							c5.188,1.822,7.02,9.021,4.09,16.078C466.165,534.54,459.585,538.783,454.396,536.961z"/>
					</g>
				</g>
				<g>
					<g>
						<path fill="#F2A981" d="M375.777,501.603c-1.004,0.478-8.948,3.559-13.888,6.536c-4.94,2.977-15.5,11.917-15.5,11.917
							c-0.186-0.363-3.306-1.979-3.088-2.974c1.266-5.803,11.444-19.466,11.444-19.466l20.909-10.404c0,0,5.979,9.772,5.913,10.173
							C381.5,497.784,375.777,501.603,375.777,501.603z"/>
						<path fill="#F2A981" d="M377.69,498.581c-0.629,1.509-3.768,6.121-4.174,6.531c-0.405,0.411-9.626,5.793-9.626,5.793
							l-1.82-0.088l0.353-1.778l2.741-2.685l2.785-0.845c0,0,1.789-3.515,1.908-3.837
							C369.976,501.352,377.69,498.581,377.69,498.581z"/>
					</g>
					<circle fill="#F2A981" cx="377.651" cy="492.856" r="5.988"/>
				</g>
			</g>
			<g>
				<path fill="#102051" d="M521.176,273.214c-1.761,5.874-6.925,18.971-6.834,18.376c0.091-0.595,3.774-24.732,3.774-24.732
					L521.176,273.214z"/>
				<path fill="#102051" d="M567.069,274.329c3.754-0.063,16.564-7.896,10.785-23.174c-5.778-15.277-46.122-15.041-41.288,6.108
					c0,0,4.862-11.092-8.762-11.444c-13.623-0.352-19.724,13.233-9.688,21.039l-2.49,8.772c0,0,15.492,0.349,22.603-6.627
					c0,0,20.982,11.231,24.25,12.61l0.599,18.872c1.447-0.566,6.849-16.567,6.849-16.567L567.069,274.329z"/>
			</g>
			<g>
				<g>
					<g>
						<g>
							<polygon fill="#356AB0" points="544.742,372.749 523.152,411.135 492.285,420.294 488.373,382.731 508.447,367.208 
								526.897,370.025 							"/>
							<g>
								<path fill="#356AB0" d="M544.742,372.749c0,0-18.006,22.457-28.796,18.401c-10.789-4.055-7.499-23.941-7.499-23.941
									l-28.716-4.48l-6.892,49.471l-8.153,39.257l-12.274,50.97l-1.914,3.082l-4.875,12.302l-1.605,9.916l1.62,2.823l1.615,2.239
									l22.162,6.221l32.499,1.216l27.81,6.262l26.82,2.077l7.147-10.05l8.464-73.005l18.55-83.513
									c-2.357-1.8-6.042-7.708-9.008-7.716C569.272,374.242,557,375.14,544.742,372.749L544.742,372.749z"/>
								<circle fill="#356AB0" cx="577.701" cy="395.036" r="18.418"/>
							</g>
						</g>
					</g>
					<g>
						<path fill="#102051" d="M471.609,412.83l-0.426-9.714l0.494-0.021l0.33,7.525c1.956-4.853,3.074-9.96,3.324-15.2l0.494,0.023
							c-0.271,5.668-1.546,11.185-3.789,16.395L471.609,412.83z"/>
					</g>
				</g>
				<g>
					<path fill="#102051" d="M447.044,532.921l-3.283-5.139l0.012-0.09c0.007-0.055,0.745-5.538,1.824-9.505
						c1.082-3.97,4.06-10.248,4.09-10.312l4.267-8.13l16.14-76.067l0.484,0.104l-16.17,76.164l-4.278,8.151
						c-0.025,0.054-2.984,6.293-4.054,10.221c-0.996,3.656-1.7,8.625-1.8,9.351l3.187,4.986L447.044,532.921z"/>
				</g>
			</g>
			<g>
				<path fill="#0B0C0F" d="M558.511,568.216c-6.452-3.593-14.274-10.901-16.203-18.457l0.551-0.141
					c1.888,7.393,9.58,14.564,15.93,18.1L558.511,568.216z"/>
			</g>
			<path fill="#FFFFFF" d="M557.899,374.244c0,0-37.329,35.558-44.003,48.053c-3.391,6.349-6.275,16.373-8.293,24.699
				c-0.389,1.604-2.745,1.326-2.749-0.325c-0.018-8.605-0.439-19.135-2.079-26.377c-3.399-15.008-5.363-55.996-5.363-55.996
				l31.754,1.632L557.899,374.244z"/>
			<g>
				<path fill="#102051" d="M501.667,540.245c-0.214-2.58-5.203-63.298-2.252-73.473c0.35-1.206,0.528-2.863,0.735-4.782
					c0.32-2.974,0.684-6.346,1.808-9.563c0.203-0.582,0.214-1.323,0.226-2.108c0.012-0.812,0.024-1.65,0.268-2.337
					c1.227-3.459,2.304-8.497,3.203-14.973c2.231-16.046,6.595-31.607,12.969-46.252l8.316-19.107l0.453,0.197l-8.316,19.107
					c-6.355,14.604-10.706,30.121-12.932,46.123c-0.904,6.509-1.989,11.579-3.227,15.07c-0.217,0.609-0.229,1.407-0.239,2.178
					c-0.012,0.79-0.023,1.607-0.254,2.266c-1.104,3.164-1.465,6.505-1.782,9.453c-0.21,1.941-0.391,3.619-0.753,4.867
					c-2.925,10.086,2.219,72.662,2.271,73.293L501.667,540.245z"/>
			</g>
			<g>
				<path fill="#102051" d="M502.86,453.386l-0.352-0.35c0.36-0.362,2.194-2.178,2.899-2.358c0.177-0.193,0.739-2.193,1.334-4.312
					c1.114-3.962,2.798-9.948,5.081-15.015c3.96-8.788,12.881-20.467,21.694-28.401c8.535-7.684,25.547-28.591,25.718-28.801
					l0.385,0.313c-0.171,0.21-17.207,21.147-25.771,28.856c-8.769,7.894-17.641,19.505-21.575,28.237
					c-2.269,5.032-3.945,10.998-5.056,14.945c-1.07,3.808-1.313,4.562-1.688,4.658C505.088,451.271,503.657,452.585,502.86,453.386z
					"/>
			</g>
			<g>
				<path fill="#102051" d="M502.966,450.751c-0.045-0.051-0.479-0.595-1.947-4.015c-0.814-1.898-1.171-5.479-1.711-10.9
					c-0.46-4.617-1.089-10.941-2.275-18.801c-1.411-9.359-2.363-23.168-3.129-34.263c-0.625-9.056-1.118-16.208-1.636-17.926
					l0.475-0.143c0.533,1.771,1.028,8.947,1.655,18.034c0.765,11.086,1.716,24.884,3.125,34.223
					c1.188,7.872,1.817,14.203,2.277,18.826c0.535,5.375,0.889,8.926,1.674,10.754c1.428,3.325,1.85,3.866,1.867,3.888
					L502.966,450.751z"/>
			</g>
			<polygon fill="#102051" points="530.646,380.813 527.166,365.93 549.988,363.448 551.873,373.894 			"/>
			<polygon fill="#FFFFFF" points="527.166,365.93 532.285,378.222 551.873,373.894 549.988,363.448 			"/>
			<polygon fill="#102051" points="520.388,379.247 528.149,366.081 507.106,356.903 502.191,366.311 			"/>
			<polygon fill="#FFFFFF" points="528.149,366.081 519.596,376.285 502.191,366.311 507.106,356.903 			"/>
			<g>
				<path fill="#102051" d="M504.512,448.252c-0.001,0-0.002,0-0.004,0c-0.877-0.002-1.913-0.718-2.056-1.872
					c-0.128-1.034-0.106-2.125,0.063-3.241c0.676-4.425-0.197-13.7-1.395-19.756c-0.744-3.764-2.383-13.174-3.257-21.854
					c-1.743-17.293-2.69-37.022-2.699-37.219l0.494-0.023c0.01,0.197,0.956,19.913,2.697,37.194
					c0.873,8.66,2.508,18.051,3.251,21.807c1.204,6.097,2.082,15.448,1.398,19.926c-0.164,1.072-0.185,2.117-0.062,3.106
					c0.105,0.858,0.895,1.437,1.564,1.438c0.001,0,0.002,0,0.003,0c0.279,0,0.758-0.104,0.847-0.792
					c0.994-7.751,5.74-20.55,9.007-25.979c6.764-11.24,42.996-46.564,43.361-46.919l0.346,0.354
					c-0.365,0.355-36.553,35.634-43.283,46.821c-3.242,5.388-7.953,18.092-8.94,25.785
					C505.752,447.783,505.24,448.252,504.512,448.252z"/>
			</g>
			<g>
				<circle fill="none" stroke="#102051" stroke-width="0.495" stroke-miterlimit="10" cx="526.556" cy="386.632" r="1.592"/>
				<circle fill="none" stroke="#102051" stroke-width="0.495" stroke-miterlimit="10" cx="523.095" cy="396.437" r="1.592"/>
				<circle fill="none" stroke="#102051" stroke-width="0.495" stroke-miterlimit="10" cx="519.635" cy="406.243" r="1.593"/>
			</g>
			<g>
				<path fill="#102051" d="M456.402,536.084l-1.298-3.521c-1.06-1.989-1.85-4.129-2.328-6.318l0.475-0.139l2.306,6.255
					c0.107,0.199,0.217,0.397,0.329,0.595c0.097-4.213,0.844-8.359,2.228-12.352l0.467,0.162c-1.454,4.195-2.196,8.565-2.21,13.001
					c0.316,0.507,0.65,1.001,1.003,1.48l-0.398,0.293c-0.205-0.279-0.404-0.563-0.597-0.851L456.402,536.084z"/>
			</g>
			<g>
				<path fill="#102051" d="M533.948,545.971l-0.17-0.465c2.096-0.769,4.109-1.798,5.976-3.046c1.093-1.388,2.502-2.534,4.086-3.306
					l1.376-0.67l-1.095,1.069c-1.234,1.207-2.586,2.304-4.026,3.273c-0.162,0.209-0.317,0.423-0.464,0.643
					c4.199-1.926,7.878-5.069,10.419-8.92l0.414,0.273c-2.74,4.15-6.776,7.496-11.365,9.421l-0.67,0.281l0.359-0.632
					c0.07-0.125,0.144-0.248,0.219-0.369C537.402,544.503,535.703,545.327,533.948,545.971z"/>
			</g>
			<g>
				<path fill="#102051" d="M483.595,537.875l-0.454-0.333c-2.895-2.119-5.577-4.537-7.983-7.192
					c0.234,2.675,1.971,5.236,4.396,6.388l-0.213,0.447c-2.842-1.349-4.732-4.369-4.705-7.515l0.005-0.646l0.428,0.484
					c2.375,2.69,5.035,5.145,7.912,7.3c-0.772-7.32-0.941-14.749-0.502-22.091l0.494,0.029c-0.449,7.502-0.261,15.096,0.561,22.569
					L483.595,537.875z"/>
			</g>
			<g>
				<path fill="#102051" d="M520.752,540.483c-0.121,0-0.241-0.005-0.361-0.014l0.039-0.494c1.33,0.108,2.735-0.445,3.646-1.433
					l0.363,0.336C523.511,539.887,522.125,540.483,520.752,540.483z"/>
			</g>
			<g>
				
					<rect x="555.082" y="540.803" transform="matrix(0.6347 0.7727 -0.7727 0.6347 622.988 -230.5176)" fill="#102051" width="0.495" height="5.837"/>
			</g>
		</g>
		<g>
			<path fill="#FFFFFF" d="M330.489,518.927v0.188c0.167,0.313,0.257,0.674,0.257,1.031v1c0,0.298-0.095,0.562-0.243,0.792h182.995
				v-3.011H330.489z"/>
			<g>
				<path fill="#102051" d="M330.242,518.68v0.082c0.298,0.347,0.471,0.806,0.495,1.272v-0.859H513.25v2.515H330.737v-0.472
					c-0.02,0.379-0.18,0.707-0.426,0.967h183.434v-3.505H330.242z"/>
			</g>
		</g>
		<g>
			<polygon fill="#C6C6E5" points="514.656,520.339 491.641,520.339 487.588,474.678 518.71,474.678 			"/>
			<g>
				<g>
					<g>
						<polygon fill="#F2A981" points="581.08,525.768 517.196,515.326 517.707,504.656 587.706,504.213 						"/>
						<circle fill="#F2A981" cx="583.851" cy="514.964" r="10.924"/>
						<circle fill="#F2A981" cx="517.424" cy="510.569" r="5.988"/>
					</g>
					<g>
						<path fill="#356AB0" d="M617.657,503.926c-43.812-5.072-90.636-4.316-90.636-4.316l0,0c1.488,7.006,1.026,14.287-1.336,21.049
							l-0.533,1.526c0,0,12.102-0.231,16.003,1.594c3.659,1.712,3.12-0.371,9.806,0.472c11.567,1.457,12.671,3.097,37.916,6.103
							c8.232,0.98,20.354-0.07,27.482,0.723l10.144-5.285L617.657,503.926z"/>
						<circle fill="#356AB0" cx="615.27" cy="517.678" r="13.859"/>
					</g>
				</g>
				<g>
					<circle fill="#F2A981" cx="516.227" cy="511.094" r="7.238"/>
					<path fill="#F2A981" d="M516.572,503.864c0,0-22.46-0.604-26.737-3.871c0,0-1.214-1.77-3.016,0
						c-1.803,1.771-0.335,15.814,2.118,19.233c2.39,3.33,7.096,3.842,8.005,3.33c0.91-0.512,18.314-4.294,18.314-4.294
						L516.572,503.864z"/>
				</g>
			</g>
		</g>
		<g>
			<polygon fill="#262C38" points="541.103,775.69 529.222,775.69 645.021,529.771 658.328,529.771 			"/>
			<polygon fill="#383F53" points="544.532,775.69 532.652,775.69 648.45,529.771 661.758,529.771 			"/>
			<polygon fill="#262C38" points="654.269,775.69 666.148,775.69 533.796,529.771 520.488,529.771 			"/>
			<polygon fill="#383F53" points="657.367,775.69 669.248,775.69 536.895,529.771 523.587,529.771 			"/>
		</g>
		<g>
			<rect x="108.151" y="522.12" fill="#FFA66C" width="586.454" height="11.05"/>
			<rect x="488.079" y="522.12" fill="#E87C3A" width="206.525" height="11.05"/>
		</g>
		<g>
			<defs>
				<rect id="SVGID_4_" x="107.837" y="522.12" width="586.453" height="11.05"/>
			</defs>
			<clipPath id="SVGID_5_">
				<use xlink:href="#SVGID_4_"  overflow="visible"/>
			</clipPath>
			<g clip-path="url(#SVGID_5_)">
				<g>
					<path fill="#E87C3A" d="M106.302,537.468c-0.033,0-0.066-0.007-0.098-0.021c-0.12-0.055-0.173-0.195-0.119-0.314
						c2.688-5.939,5.793-11.92,11.551-14.089c2.302-0.867,4.795-0.998,7.205-1.125c1.351-0.071,2.748-0.146,4.092-0.348
						c3.708-0.558,7.652-2.739,8.104-6.354c0.017-0.13,0.134-0.22,0.266-0.207c0.131,0.017,0.223,0.136,0.207,0.266
						c-0.483,3.863-4.62,6.182-8.507,6.767c-1.366,0.206-2.774,0.28-4.137,0.352c-2.374,0.125-4.83,0.255-7.063,1.096
						c-5.588,2.104-8.639,7.991-11.285,13.839C106.479,537.415,106.393,537.468,106.302,537.468z"/>
				</g>
				<g>
					<path fill="#E87C3A" d="M112.549,537.22c-0.044,0-0.087-0.012-0.127-0.037c-0.111-0.069-0.145-0.217-0.074-0.328
						c2.703-4.305,5.497-8.27,9.936-9.495c1.797-0.496,3.683-0.452,5.51-0.413c1.401,0.032,2.848,0.064,4.234-0.149
						c5.437-0.837,9.948-5.992,10.059-11.491c0.003-0.132,0.122-0.235,0.243-0.233c0.131,0.003,0.235,0.111,0.233,0.243
						c-0.115,5.72-4.809,11.081-10.463,11.952c-1.427,0.219-2.897,0.187-4.317,0.154c-1.789-0.038-3.642-0.082-5.372,0.396
						c-4.274,1.18-7.009,5.067-9.66,9.29C112.705,537.18,112.628,537.22,112.549,537.22z"/>
				</g>
				<g>
					<path fill="#E87C3A" d="M163.772,532.481c-2.646,0-5.367-0.718-7.847-2.113c-3.655-2.056-6.326-5.324-7.374-9.005l-2.592,1.813
						l-0.075-0.351c-0.312-1.443,0.335-3.015,1.573-3.82c0.109-0.07,0.257-0.041,0.329,0.069s0.041,0.258-0.069,0.329
						c-0.956,0.623-1.519,1.821-1.423,2.957l2.544-1.778l0.085,0.332c0.946,3.69,3.583,6.984,7.235,9.039
						c3.65,2.055,7.835,2.597,11.478,1.489c2.337-0.71,4.504-2.005,6.601-3.257c2.518-1.504,5.122-3.059,8.049-3.623
						c2.938-0.566,5.95-0.089,8.863,0.374c0.785,0.124,1.569,0.249,2.352,0.354c4.751,0.635,8.206,0.031,10.564-1.847
						c1.558-1.24,2.509-3.477,2.365-5.564c-0.109-1.599-0.831-2.872-2.032-3.584c-0.113-0.067-0.15-0.214-0.084-0.326
						c0.067-0.112,0.213-0.149,0.326-0.084c1.34,0.795,2.145,2.202,2.265,3.962c0.156,2.272-0.843,4.615-2.543,5.97
						c-2.465,1.963-6.038,2.603-10.924,1.944c-0.786-0.104-1.574-0.229-2.364-0.354c-2.872-0.457-5.841-0.925-8.698-0.377
						c-2.845,0.549-5.412,2.082-7.895,3.565c-2.121,1.267-4.314,2.576-6.706,3.303C166.49,532.289,165.142,532.481,163.772,532.481z
						"/>
				</g>
				<g>
					<path fill="#E87C3A" d="M163.906,528.209c-1.733,0-3.456-0.461-4.845-1.665l-4.355-6.218c-0.075-0.108-0.049-0.257,0.059-0.332
						c0.109-0.073,0.256-0.048,0.332,0.059l4.316,6.175c2.688,2.324,6.841,1.608,9.569,0.277c1.721-0.84,3.312-1.985,4.85-3.094
						c1.249-0.9,2.54-1.831,3.905-2.603c3.716-2.103,7.524-2.418,10.19-0.85c0.476,0.28,0.918,0.62,1.346,0.948
						c0.639,0.49,1.242,0.954,1.95,1.239c2.292,0.924,4.851-0.288,7.289-1.788l-3.98-5.977c-0.072-0.109-0.043-0.257,0.066-0.33
						c0.107-0.071,0.257-0.044,0.33,0.066l4.252,6.386l-0.208,0.13c-2.608,1.623-5.372,2.982-7.927,1.954
						c-0.769-0.311-1.427-0.815-2.063-1.304c-0.416-0.319-0.847-0.649-1.298-0.915c-2.517-1.482-6.148-1.163-9.714,0.854
						c-1.343,0.759-2.623,1.682-3.861,2.574c-1.555,1.12-3.162,2.278-4.919,3.136C167.699,527.66,165.797,528.209,163.906,528.209z"
						/>
				</g>
				<g>
					<path fill="#E87C3A" d="M157.503,535.974c-0.04,0-0.081-0.011-0.118-0.031c-6.048-3.452-10.751-9.229-12.905-15.851
						c-0.04-0.125,0.028-0.259,0.153-0.3c0.124-0.039,0.259,0.028,0.3,0.153c2.117,6.51,6.742,12.19,12.688,15.583
						c0.114,0.065,0.153,0.211,0.089,0.325C157.666,535.931,157.585,535.974,157.503,535.974z"/>
				</g>
				<g>
					<path fill="#E87C3A" d="M180.616,537.683c-0.066,0-0.133-0.028-0.18-0.083c-0.086-0.1-0.075-0.249,0.024-0.335
						c5.219-4.509,11.879-7.287,18.753-7.825c0.747-0.059,1.502-0.093,2.258-0.126c2.523-0.114,5.133-0.231,7.401-1.311
						c4.475-2.127,6.318-7.262,6.552-11.357c0.007-0.126,0.112-0.225,0.237-0.225c0.004,0,0.009,0,0.014,0.001
						c0.131,0.007,0.231,0.12,0.224,0.251c-0.24,4.231-2.159,9.544-6.821,11.76c-2.356,1.12-5.015,1.24-7.585,1.355
						c-0.751,0.034-1.501,0.068-2.242,0.126c-6.773,0.529-13.336,3.268-18.479,7.71
						C180.727,537.663,180.672,537.683,180.616,537.683z"/>
				</g>
				<g>
					<path fill="#E87C3A" d="M127.469,537.705c-0.304,0-0.607-0.007-0.91-0.021c-0.132-0.006-0.233-0.117-0.227-0.248
						c0.006-0.128,0.11-0.228,0.237-0.228c0.004,0,0.008,0,0.011,0.001c3.943,0.182,7.973-0.871,11.322-2.975
						c2.063-1.295,3.271-2.746,3.591-4.314c0.302-1.479-0.172-3.072-0.631-4.613c-0.59-1.983-1.2-4.033-0.102-5.803
						c0.069-0.113,0.216-0.147,0.327-0.077c0.112,0.069,0.146,0.216,0.077,0.327c-0.985,1.589-0.433,3.448,0.153,5.417
						c0.476,1.598,0.967,3.249,0.642,4.845c-0.347,1.7-1.627,3.255-3.804,4.621C134.981,536.63,131.219,537.705,127.469,537.705z"/>
				</g>
				<g>
					<path fill="#E87C3A" d="M198.225,539.707c-0.075,0-0.148-0.036-0.195-0.103c-0.075-0.107-0.049-0.256,0.06-0.331
						c6.861-4.783,14.21-8.948,21.843-12.38l4.083-8.812c0.055-0.118,0.197-0.171,0.315-0.116c0.12,0.056,0.172,0.196,0.116,0.315
						l-4.157,8.974l-0.081,0.036c-7.635,3.427-14.985,7.589-21.848,12.373C198.319,539.692,198.271,539.707,198.225,539.707z"/>
				</g>
				<g>
					<path fill="#E87C3A" d="M240.868,531.789c-0.286,0-0.571-0.011-0.858-0.034c-3.516-0.287-6.846-2.645-8.285-5.865
						c-1.44-3.219-0.978-7.272,1.151-10.085c0.079-0.104,0.228-0.127,0.333-0.046c0.104,0.079,0.125,0.229,0.046,0.333
						c-2.027,2.679-2.468,6.538-1.097,9.604c1.372,3.066,4.543,5.311,7.891,5.584c2.305,0.191,4.611-0.474,6.841-1.113
						c0.715-0.205,1.454-0.417,2.185-0.599c4.446-1.106,9.169-1.197,13.657-0.26c0.711,0.148,1.423,0.322,2.136,0.497
						c2.239,0.548,4.554,1.116,6.832,0.821c2.349-0.302,4.423-1.551,5.55-3.341c1.227-1.949,1.216-4.515-0.026-6.238
						c-1.322-1.837-3.979-2.453-5.802-1.349c-0.11,0.067-0.259,0.033-0.326-0.08c-0.068-0.112-0.032-0.258,0.08-0.326
						c2.022-1.229,4.971-0.554,6.435,1.478c1.353,1.877,1.369,4.66,0.042,6.77c-1.201,1.908-3.404,3.238-5.892,3.56
						c-2.366,0.302-4.725-0.272-7.006-0.832c-0.707-0.173-1.414-0.347-2.12-0.494c-4.417-0.92-9.064-0.833-13.444,0.256
						c-0.723,0.18-1.458,0.392-2.169,0.596C245.022,531.198,242.964,531.789,240.868,531.789z"/>
				</g>
				<g>
					<path fill="#E87C3A" d="M241.832,527.186c-0.813,0-1.684-0.092-2.438-0.516c-1.909-1.071-2.177-3.731-1.328-5.582
						c0.87-1.9,2.604-3.205,4.134-4.356c0.104-0.079,0.254-0.059,0.333,0.048c0.079,0.104,0.058,0.254-0.048,0.333
						c-1.484,1.117-3.167,2.383-3.986,4.174c-0.764,1.665-0.492,4.06,1.128,4.97c0.946,0.53,2.168,0.47,3.147,0.425l17.148-0.816
						c3.379-0.161,6.865-0.327,10.176-1.241l-7.105-3.852c-0.115-0.063-0.158-0.207-0.096-0.322s0.205-0.159,0.322-0.096
						l8.115,4.399l-0.544,0.165c-3.53,1.073-7.249,1.25-10.845,1.421l-17.148,0.816C242.493,527.17,242.168,527.186,241.832,527.186
						z"/>
				</g>
				<g>
					<path fill="#E87C3A" d="M266.882,540.291c-0.1,0-0.192-0.063-0.226-0.163c-0.042-0.125,0.025-0.26,0.15-0.301
						c4.416-1.47,9.421-3.135,12.968-6.636c3.264-3.224,5.237-8.923,2.466-13.137c-0.071-0.11-0.041-0.258,0.068-0.33
						c0.109-0.071,0.258-0.041,0.33,0.068c2.91,4.426,0.868,10.381-2.53,13.736c-3.626,3.58-8.687,5.264-13.151,6.749
						C266.932,540.287,266.906,540.291,266.882,540.291z"/>
				</g>
				<g>
					<path fill="#E87C3A" d="M277.611,543.638c-0.107,0-0.204-0.073-0.231-0.182c-0.031-0.128,0.047-0.257,0.175-0.288
						c4.915-1.2,9.271-4.85,11.37-9.525c2.091-4.657,1.993-10.22-0.26-14.88c-0.058-0.118-0.008-0.261,0.11-0.317
						c0.116-0.059,0.26-0.009,0.317,0.11c2.314,4.785,2.414,10.498,0.266,15.282c-2.156,4.806-6.637,8.559-11.69,9.793
						C277.648,543.635,277.63,543.638,277.611,543.638z"/>
				</g>
				<g>
					<path fill="#E87C3A" d="M336.885,532.634c-2.339,0-4.676-0.479-6.78-1.004c-0.564-0.141-1.129-0.288-1.694-0.435
						c-2.718-0.708-5.526-1.44-8.349-1.44c-0.035,0-0.07,0-0.104,0.001c-2.532,0.016-5.065,0.63-7.515,1.224
						c-2.646,0.642-5.389,1.305-8.147,1.229c-3.352-0.094-6.061-1.459-7.244-3.654c-0.739-1.37-0.65-3.262,0.222-4.708
						c0.694-1.15,1.765-1.809,2.94-1.809c0.011,0,0.021,0,0.03,0c0.132,0.002,0.237,0.109,0.236,0.24
						c-0.002,0.131-0.108,0.236-0.238,0.236c-0.001,0-0.002,0-0.002,0c-0.009,0-0.018-0.001-0.025-0.001
						c-1.006,0-1.928,0.574-2.534,1.579c-0.788,1.307-0.873,3.009-0.211,4.235c1.103,2.044,3.66,3.316,6.84,3.404
						c2.702,0.069,5.407-0.581,8.021-1.215c2.476-0.6,5.036-1.221,7.623-1.237c2.902-0.023,5.795,0.729,8.577,1.455
						c0.563,0.147,1.126,0.294,1.689,0.435c3.298,0.822,6.81,1.457,10.159,0.557c3.06-0.825,6.232-3.483,6.375-6.967
						c0.07-1.727-0.904-3.54-2.484-4.619c-1.156-0.79-2.434-1.036-3.576-0.711c0.373,0.319,0.6,0.816,0.665,1.468
						c0.227,2.258-1.535,6.13-3.308,7.268c-1.622,1.04-3.716,0.685-5.55,0.203c-4.585-1.209-9.025-2.958-13.203-5.199
						c-3.115,5.271-9.866,8.097-15.806,6.583l-0.121-0.03l-0.044-0.118c-0.65-1.761-0.518-3.833,0.363-5.686
						c0.881-1.852,2.404-3.261,4.18-3.866c0.125-0.037,0.261,0.024,0.303,0.148c0.042,0.125-0.024,0.26-0.148,0.303
						c-1.655,0.563-3.078,1.884-3.904,3.62c-0.807,1.696-0.946,3.583-0.389,5.198c5.787,1.408,12.331-1.405,15.27-6.589l0.115-0.203
						l0.205,0.111c4.203,2.276,8.679,4.048,13.301,5.267c1.735,0.459,3.706,0.799,5.171-0.143c1.625-1.043,3.301-4.739,3.092-6.819
						c-0.07-0.708-0.35-1.162-0.827-1.348l-0.537-0.208l0.527-0.231c1.405-0.616,3.039-0.4,4.489,0.589
						c1.713,1.17,2.77,3.146,2.691,5.032c-0.151,3.713-3.498,6.536-6.727,7.406C339.318,532.504,338.102,532.634,336.885,532.634z"
						/>
				</g>
				<g>
					<path fill="#E87C3A" d="M331.207,525.232c-0.297,0-0.59-0.029-0.869-0.087c-1.467-0.304-2.694-1.204-3.881-2.075
						c-1.023-0.75-2.297-1.685-3.713-1.94c-2.153-0.385-4.128,0.714-6.226,1.879c-2.108,1.172-4.288,2.38-6.625,1.899l-0.269-0.056
						l0.093-0.258c0.496-1.386,1.512-2.602,2.787-3.338c0.114-0.065,0.259-0.027,0.325,0.087c0.065,0.114,0.026,0.26-0.087,0.325
						c-1.098,0.634-1.987,1.651-2.476,2.822c2.06,0.305,3.985-0.767,6.02-1.898c2.079-1.154,4.23-2.345,6.541-1.932
						c1.524,0.275,2.848,1.246,3.91,2.026c1.146,0.84,2.331,1.709,3.696,1.991c1.269,0.267,2.871-0.117,3.487-1.352
						c0.297-0.594,0.194-1.402-0.254-2.012c-0.357-0.483-0.844-0.71-1.346-0.636c-0.128,0.03-0.252-0.066-0.272-0.196
						c-0.021-0.13,0.066-0.252,0.196-0.272c0.676-0.11,1.346,0.199,1.805,0.823c0.552,0.749,0.671,1.756,0.297,2.506
						C333.764,524.71,332.451,525.232,331.207,525.232z"/>
				</g>
				<g>
					<path fill="#E87C3A" d="M346.133,538.945c-0.101,0-0.194-0.065-0.227-0.166c-1.142-3.592,1.827-7.184,5.2-8.74
						c3.708-1.711,7.888-1.852,11.93-1.987c3.761-0.127,8.024-0.271,11.71-2.072c3.225-1.575,6.459-5.161,5.94-9.312
						c-0.016-0.13,0.076-0.249,0.207-0.266c0.129-0.013,0.248,0.077,0.266,0.207c0.547,4.382-2.833,8.15-6.204,9.798
						c-3.777,1.846-8.283,1.998-11.903,2.119c-3.995,0.135-8.125,0.274-11.746,1.944c-3.232,1.492-5.966,4.954-4.946,8.164
						c0.04,0.125-0.029,0.259-0.154,0.299C346.181,538.941,346.156,538.945,346.133,538.945z"/>
				</g>
				<g>
					<path fill="#E87C3A" d="M350.203,544.492c-0.043,0-0.086-0.012-0.125-0.036c-0.112-0.069-0.146-0.216-0.077-0.327
						c4.392-7.094,12.283-11.942,20.595-12.655c0.942-0.08,1.908-0.113,2.843-0.146c2.382-0.08,4.845-0.164,7.053-1.056
						c4.128-1.665,6.815-6.251,6.251-10.667c-0.017-0.131,0.076-0.25,0.206-0.267c0.139-0.014,0.249,0.076,0.267,0.206
						c0.591,4.624-2.224,9.426-6.546,11.169c-2.286,0.923-4.791,1.008-7.214,1.09c-0.929,0.032-1.889,0.064-2.818,0.145
						c-8.165,0.699-15.918,5.463-20.231,12.431C350.36,544.452,350.282,544.492,350.203,544.492z"/>
				</g>
				<g>
					<path fill="#E87C3A" d="M376.418,537.571c-0.109,0-0.208-0.076-0.232-0.188c-0.028-0.128,0.053-0.255,0.182-0.283
						c5.624-1.241,11.016-3.315,16.024-6.167c2.56-1.457,5.753-3.526,7.747-6.618c2.014-3.122,2.336-6.899,0.82-9.625
						c-0.063-0.114-0.022-0.26,0.093-0.323c0.113-0.064,0.259-0.022,0.323,0.093c1.6,2.876,1.271,6.846-0.836,10.113
						c-2.051,3.179-5.305,5.29-7.911,6.774c-5.051,2.874-10.487,4.966-16.159,6.218
						C376.452,537.569,376.435,537.571,376.418,537.571z"/>
				</g>
				<g>
					<path fill="#E87C3A" d="M438.498,534.81c-1.117,0-2.215-0.032-3.271-0.063l-12.498-0.37c-2.928-0.087-5.955-0.177-8.787-1.199
						c-3.177-1.148-5.517-3.418-6.258-6.07c-0.444-1.592-0.202-3.428,0.648-4.912c0.725-1.263,1.818-2.141,3.081-2.473
						c0.131-0.031,0.258,0.044,0.291,0.17c0.033,0.127-0.043,0.257-0.17,0.291c-1.139,0.299-2.129,1.098-2.789,2.249
						c-0.789,1.375-1.015,3.075-0.603,4.546c0.699,2.506,2.928,4.655,5.961,5.752c2.76,0.997,5.749,1.085,8.639,1.17l12.498,0.37
						c3.752,0.112,7.625,0.227,11.253-0.964c3.12-1.025,6.76-3.533,7.616-7.498c0.414-1.919-0.114-4.135-1.379-5.783
						c-1.063-1.384-2.491-2.187-4.023-2.262c-0.131-0.006-0.232-0.117-0.226-0.249c0.006-0.131,0.106-0.255,0.249-0.226
						c1.674,0.081,3.229,0.95,4.377,2.447c1.348,1.755,1.91,4.12,1.467,6.172c-0.898,4.162-4.687,6.784-7.933,7.85
						C444.019,534.619,441.201,534.81,438.498,534.81z"/>
				</g>
				<g>
					<path fill="#E87C3A" d="M424.896,534.857c-1.497,0-2.986-0.191-4.447-0.637c-3.003-0.914-5.288-2.811-6.269-5.202
						c-1.149-2.796-0.159-6.165,2.208-7.51c0.113-0.063,0.26-0.025,0.324,0.09c0.064,0.114,0.024,0.259-0.09,0.324
						c-2.165,1.23-3.063,4.333-2.003,6.915c0.914,2.227,3.145,4.068,5.968,4.928c5.503,1.675,11.501-0.372,16.641-2.598
						c2.445-1.06,4.962-2.273,6.494-4.415c1.471-2.056,1.696-5.36-0.313-7.003c-0.102-0.084-0.117-0.233-0.034-0.335
						c0.085-0.103,0.233-0.117,0.335-0.034c2.217,1.813,1.996,5.418,0.399,7.649c-1.604,2.24-4.185,3.488-6.691,4.575
						C433.547,533.281,429.192,534.856,424.896,534.857z"/>
				</g>
				<g>
					<path fill="#E87C3A" d="M430.512,530.116c-0.11,0-0.221-0.003-0.33-0.008c-3.932-0.167-7.502-2.518-10.37-4.407l-0.139-0.091
						l1.21-5.153c0.029-0.127,0.153-0.213,0.286-0.177c0.128,0.03,0.207,0.158,0.177,0.286l-1.134,4.829
						c2.796,1.84,6.252,4.079,9.989,4.238c2.135,0.079,4.395-0.76,5.906-2.217c1.142-1.101,1.74-2.426,1.731-3.831
						c-0.013-2.063-1.355-4.173-3.592-5.643c-0.109-0.072-0.14-0.22-0.068-0.33c0.073-0.108,0.223-0.139,0.33-0.068
						c2.37,1.558,3.793,3.815,3.807,6.038c0.009,1.538-0.64,2.983-1.878,4.177C434.913,529.229,432.669,530.116,430.512,530.116z"/>
				</g>
				<g>
					<path fill="#E87C3A" d="M429.3,525.463c-0.195,0-0.388-0.018-0.574-0.054c-1.934-0.372-3.33-1.895-4.708-3.558l-0.054-0.065
						l-0.025-4.127c0-0.131,0.105-0.238,0.237-0.239h0.001c0.131,0,0.237,0.106,0.238,0.237l0.023,3.956
						c1.303,1.568,2.623,2.991,4.377,3.329c0.996,0.188,2.195-0.234,2.91-1.036c0.51-0.572,0.682-1.235,0.482-1.867
						c-0.04-0.125,0.029-0.259,0.155-0.298c0.126-0.041,0.26,0.03,0.298,0.155c0.252,0.797,0.046,1.623-0.58,2.326
						C431.394,524.995,430.312,525.463,429.3,525.463z"/>
				</g>
				<g>
					<path fill="#E87C3A" d="M477.354,534.095c-2.34,0-4.674-0.556-6.811-1.064c-3.438-0.819-7.335-1.747-10.321-4.137
						c-3.584-2.864-5.407-7.64-4.645-12.164c0.021-0.129,0.147-0.225,0.273-0.195c0.13,0.021,0.218,0.145,0.195,0.273
						c-0.723,4.291,1.075,8.998,4.473,11.715c2.904,2.322,6.745,3.237,10.134,4.045c3.045,0.726,6.491,1.545,9.722,0.676
						c2.67-0.721,5.093-2.636,6.648-5.255c1.65-2.782,2.184-6.092,1.462-9.081c-0.755-3.133-2.871-5.793-5.661-7.117
						c-0.119-0.057-0.17-0.198-0.113-0.316c0.058-0.118,0.201-0.168,0.316-0.113c2.919,1.385,5.132,4.164,5.921,7.436
						c0.75,3.108,0.197,6.548-1.516,9.435c-1.618,2.725-4.146,4.72-6.935,5.472C479.46,533.982,478.406,534.095,477.354,534.095z"/>
				</g>
				<g>
					<path fill="#E87C3A" d="M473.198,529.66c-2.52,0-5.017-1.187-6.874-3.274c-1.897-2.133-2.784-4.821-2.431-7.373
						c0.018-0.13,0.142-0.225,0.268-0.203c0.131,0.018,0.222,0.138,0.203,0.268c-0.334,2.415,0.511,4.963,2.315,6.992
						c1.767,1.986,4.135,3.115,6.519,3.115c0.053,0,0.104,0,0.157-0.002c2.438-0.05,4.821-1.284,6.541-3.387
						s2.457-4.684,2.022-7.083c-0.023-0.129,0.063-0.253,0.192-0.276c0.124-0.02,0.253,0.063,0.276,0.192
						c0.459,2.536-0.315,5.258-2.123,7.469c-1.809,2.21-4.323,3.508-6.899,3.562C473.31,529.66,473.254,529.66,473.198,529.66z"/>
				</g>
				<g>
					<path fill="#D35F1E" d="M504.599,544.788c-0.034,0-0.068-0.008-0.102-0.023c-1.786-0.843-3.633-1.715-5.116-3.102
						c-1.671-1.562-2.543-3.602-2.333-5.458c0.404-3.574,4.227-5.491,7.511-6.762c6.059-2.346,14.354-5.557,21.93-3.372
						c0.498,0.144,0.992,0.31,1.485,0.477c0.99,0.333,2.014,0.679,3.054,0.815c1.739,0.232,3.293-0.237,4.151-1.251
						c1.059-1.252,0.964-2.986,0.864-4.822c-0.102-1.867-0.207-3.797,1.019-5.185c0.088-0.1,0.237-0.109,0.336-0.021
						s0.108,0.237,0.021,0.336c-1.098,1.242-1.002,2.991-0.901,4.845c0.101,1.848,0.205,3.759-0.976,5.154
						c-0.963,1.14-2.674,1.667-4.577,1.417c-1.086-0.144-2.132-0.496-3.143-0.838c-0.487-0.164-0.974-0.328-1.466-0.47
						c-7.418-2.136-15.63,1.039-21.626,3.358c-3.159,1.223-6.834,3.052-7.21,6.371c-0.193,1.708,0.623,3.599,2.185,5.058
						c1.43,1.336,3.242,2.191,4.995,3.02c0.119,0.056,0.17,0.197,0.113,0.316C504.773,544.737,504.688,544.788,504.599,544.788z"/>
				</g>
				<g>
					<path fill="#D35F1E" d="M492.874,535.082c-0.014,0-0.027-0.002-0.041-0.004c-0.13-0.022-0.216-0.146-0.193-0.275
						c0.755-4.293,4.687-6.994,6.962-8.222c1.496-0.808,3.088-1.471,4.628-2.111c1.772-0.739,3.606-1.503,5.283-2.484
						c1.735-1.017,5.806-3.857,6.111-8.275c0.01-0.13,0.092-0.232,0.254-0.221c0.131,0.009,0.229,0.123,0.221,0.254
						c-0.227,3.27-2.539,6.424-6.346,8.652c-1.704,0.998-3.553,1.769-5.341,2.513c-1.529,0.637-3.109,1.296-4.584,2.091
						c-2.2,1.188-5.999,3.791-6.72,7.886C493.088,535,492.987,535.082,492.874,535.082z"/>
				</g>
				<path fill="none" stroke="#D35F1E" stroke-width="0.4758" stroke-linecap="round" stroke-miterlimit="10" d="M548.896,519.775
					c-1.901,1.74-1.761,5.006-0.155,7.023s4.277,2.925,6.852,3.055c2.575,0.129,5.129-0.412,7.68-0.784
					c5.979-0.871,12.093-0.812,18.054,0.177c2.843,0.471,5.664,1.153,8.543,1.278c2.879,0.126,5.889-0.357,8.245-2.016
					c2.357-1.658,3.895-4.673,3.223-7.476c-0.671-2.802-3.944-4.872-6.606-3.77c1.014,1.01-2.281,5.426-3.319,6.41
					s-2.512,1.329-3.917,1.594c-9.613,1.81-19.474,1.656-29.254,1.496c-1.349-0.022-2.777-0.067-3.908-0.802
					c-1.205-0.784-1.857-2.336-1.573-3.745s1.487-2.587,2.902-2.842C555.223,520.07,549.501,519.221,548.896,519.775z"/>
				<g>
					<path fill="#D35F1E" d="M570.199,524.281c-0.892,0-1.783-0.106-2.642-0.386c-1.408-0.458-2.683-1.552-3.327-2.855
						c-0.502-1.017-0.588-2.061-0.25-3.021c0.045-0.124,0.181-0.186,0.304-0.146c0.124,0.044,0.189,0.18,0.146,0.304
						c-0.295,0.836-0.216,1.753,0.228,2.651c0.59,1.193,1.757,2.194,3.047,2.613c2.314,0.754,4.841,0.194,7.072-0.297
						c1.607-0.355,3.431-0.759,4.737-1.914c1.219-1.078,1.833-3.1,0.804-4.391c-0.081-0.103-0.064-0.253,0.038-0.335
						c0.104-0.079,0.252-0.063,0.335,0.038c1.196,1.503,0.521,3.821-0.862,5.044c-1.398,1.236-3.285,1.654-4.949,2.022
						C573.469,523.921,571.836,524.281,570.199,524.281z"/>
				</g>
				<g>
					<path fill="#D35F1E" d="M567.693,536.337c-0.001,0-0.002,0-0.003,0c-4.705-0.059-9.426-0.583-14.031-1.557
						c-2.469-0.521-5.065-1.202-7.329-2.639c-2.476-1.572-4.104-3.861-4.469-6.281c-0.42-2.789,1.112-5.688,3.49-6.599
						c0.121-0.042,0.26,0.015,0.308,0.138c0.047,0.122-0.015,0.26-0.138,0.308c-2.177,0.834-3.578,3.506-3.189,6.083
						c0.344,2.283,1.895,4.452,4.254,5.949c2.199,1.396,4.746,2.063,7.171,2.576c4.575,0.967,9.266,1.487,13.939,1.545
						c0.132,0.002,0.236,0.11,0.235,0.241C567.93,536.232,567.823,536.337,567.693,536.337z"/>
				</g>
				<g>
					<path fill="#D35F1E" d="M530.102,538.858c-0.674,0-1.345-0.139-1.984-0.446c-0.118-0.058-0.168-0.199-0.111-0.318
						s0.2-0.168,0.318-0.111c2.769,1.337,6.206-0.837,7.558-3.616c1.071-2.204,1.293-4.734,1.509-7.182
						c0.064-0.74,0.13-1.479,0.217-2.211c0.502-4.214,1.947-7.086,4.295-8.535c0.11-0.069,0.257-0.036,0.327,0.077
						c0.069,0.112,0.034,0.259-0.077,0.327c-2.218,1.37-3.588,4.124-4.072,8.188c-0.087,0.727-0.151,1.461-0.216,2.195
						c-0.219,2.49-0.445,5.065-1.555,7.349C535.167,536.925,532.612,538.858,530.102,538.858z"/>
				</g>
				<g>
					<path fill="#D35F1E" d="M603.197,541.246c-0.124,0-0.229-0.097-0.237-0.222c-0.331-4.862,1.718-9.529,3.526-13.646
						c1.38-3.14,2.732-5.86,5.314-7.354c2.23-1.29,5.021-1.324,7.264-1.353l13.093-0.16c1.461-0.016,3.478-0.044,4.942,1.019
						c1.295,0.938,1.877,2.458,2.438,3.93c0.193,0.505,0.393,1.027,0.617,1.512c0.616,1.329,1.516,2.541,2.387,3.713
						c0.938,1.263,1.907,2.568,2.545,4.043c0.796,1.843,0.758,4.193-0.098,5.85c-0.584,1.132-1.49,1.857-2.621,2.098
						c-0.124,0.031-0.255-0.055-0.282-0.183c-0.027-0.129,0.055-0.255,0.183-0.282c0.987-0.21,1.781-0.851,2.298-1.851
						c0.793-1.537,0.826-3.724,0.083-5.442c-0.615-1.424-1.568-2.708-2.49-3.948c-0.885-1.191-1.799-2.424-2.436-3.798
						c-0.231-0.498-0.434-1.028-0.63-1.541c-0.562-1.471-1.093-2.86-2.273-3.715c-1.235-0.896-2.834-0.955-4.657-0.927l-13.093,0.16
						c-2.301,0.028-4.909,0.061-7.031,1.288c-2.458,1.421-3.771,4.07-5.117,7.133c-1.786,4.067-3.811,8.677-3.487,13.422
						c0.009,0.132-0.09,0.245-0.221,0.254C603.208,541.245,603.202,541.246,603.197,541.246z"/>
				</g>
				<g>
					<path fill="#D35F1E" d="M629.489,537.146c-0.087,0-0.171-0.048-0.213-0.132c-0.059-0.117-0.012-0.26,0.106-0.319
						c2.698-1.356,4.388-4.517,4.017-7.514c-0.37-2.997-2.778-5.65-5.726-6.309c-1.146-0.256-2.437-0.259-3.944-0.012
						c-6.681,1.099-12.232,6.52-13.201,12.89c-0.02,0.129-0.131,0.219-0.271,0.199c-0.13-0.02-0.219-0.142-0.199-0.271
						c0.999-6.567,6.717-12.155,13.594-13.286c1.571-0.26,2.92-0.253,4.126,0.016c3.138,0.7,5.7,3.524,6.095,6.715
						s-1.403,6.554-4.276,7.998C629.562,537.137,629.525,537.146,629.489,537.146z"/>
				</g>
				<g>
					<path fill="#D35F1E" d="M619.646,536.311c-0.101,0-0.194-0.064-0.227-0.166c-0.653-2.035-0.473-3.989,0.497-5.362
						c0.604-0.855,1.605-1.447,2.681-1.585c0.895-0.115,1.733,0.11,2.351,0.634c0.878,0.743,0.962,1.986,0.656,2.889
						c-0.319,0.938-1.018,1.523-1.868,1.564c-0.004,0.001-0.008,0.001-0.012,0.001c-0.126,0-0.231-0.1-0.237-0.227
						c-0.007-0.132,0.095-0.243,0.226-0.249c0.648-0.031,1.188-0.496,1.44-1.242c0.246-0.726,0.191-1.778-0.512-2.373
						c-0.516-0.436-1.222-0.619-1.983-0.525c-0.932,0.119-1.833,0.65-2.353,1.387c-0.883,1.251-1.04,3.053-0.433,4.944
						c0.04,0.125-0.028,0.259-0.154,0.299C619.694,536.307,619.67,536.311,619.646,536.311z"/>
				</g>
				<g>
					<path fill="#D35F1E" d="M667.044,532.702c-3.07,0-5.979-0.503-8.627-1.921c-4.93-2.641-7.673-7.664-10.502-13.474
						c-0.058-0.118-0.009-0.261,0.109-0.318c0.119-0.059,0.262-0.008,0.318,0.109c2.793,5.734,5.495,10.689,10.299,13.263
						c5.161,2.765,11.416,1.946,17.909,0.777l11.301-2.034c1.524-0.273,3.252-0.585,4.576-1.551c1.192-0.87,2.11-2.587,1.462-4.057
						c-0.053-0.12,0.002-0.261,0.122-0.313c0.119-0.052,0.261,0.001,0.313,0.122c0.749,1.696-0.274,3.653-1.616,4.633
						c-1.414,1.03-3.198,1.352-4.773,1.635l-11.301,2.034C673.346,532.199,670.114,532.702,667.044,532.702z"/>
				</g>
				<g>
					<path fill="#D35F1E" d="M677.585,528.356c-2.25,0-4.609-0.431-6.917-0.919c-3.164-0.667-6.75-1.424-9.441-3.693
						c-2.58-2.175-4.089-6.36-2.029-9.33c0.074-0.108,0.224-0.136,0.331-0.06c0.107,0.074,0.135,0.223,0.06,0.331
						c-1.907,2.75-0.476,6.654,1.945,8.695c2.6,2.191,6.124,2.936,9.232,3.592c4.456,0.94,9.102,1.67,12.666-0.585
						c1.614-2.142,2.733-4.664,3.237-7.297c0.024-0.128,0.146-0.213,0.278-0.188c0.129,0.024,0.214,0.149,0.188,0.278
						c-0.52,2.718-1.678,5.321-3.351,7.528l-0.062,0.057C681.885,527.943,679.787,528.356,677.585,528.356z"/>
				</g>
				<g>
					<path fill="#D35F1E" d="M673.782,523.691c-2.623,0-5.229-1.678-6.245-4.106c-0.051-0.121,0.007-0.261,0.128-0.312
						c0.123-0.051,0.262,0.008,0.312,0.128c1.022,2.443,3.765,4.06,6.409,3.782c2.633-0.288,4.973-2.47,5.441-5.076
						c0.023-0.13,0.152-0.211,0.276-0.192c0.13,0.023,0.216,0.147,0.192,0.276c-0.505,2.806-3.024,5.155-5.859,5.465
						C674.22,523.681,674.001,523.691,673.782,523.691z"/>
				</g>
			</g>
		</g>
		<g>
			<path fill="#16063D" d="M694.604,533.726H487.523V522.12c0-0.307,0.249-0.556,0.556-0.556s0.556,0.249,0.556,0.556v10.494h205.97
				c0.307,0,0.556,0.249,0.556,0.556S694.911,533.726,694.604,533.726z"/>
		</g>
		<path fill="#F2A981" d="M510.351,503.282c5.975-1.743,6.365-6.143,6.365-6.143s1.385-0.024,1.994,2.839s-4.918,6.53-4.918,6.53
			L510.351,503.282z"/>
		<path fill="#F2A981" d="M518.71,499.979c-0.955,2.894,0.794,4.666,0.794,4.666l-11.518,4.197l6.567-4.261L518.71,499.979z"/>
		<path fill="#152036" d="M488.551,485.535c3.477,1.349,10.352,2.151,16.727,0s12.469,0,12.469,0l-1.03,11.604
			c0,0-0.396,6.303-8.729,6.273c0,0-14.47-0.31-18.151-3.42L488.551,485.535z"/>
		<rect x="486.018" y="473.042" fill="#CED4EF" width="33.486" height="3.271"/>
		<path fill="#DADFF2" d="M518.697,474.62h-25.449c-0.41,0-0.743-0.333-0.743-0.743l0,0c0-0.41,0.333-0.743,0.743-0.743h25.449
			c0.41,0,0.743,0.333,0.743,0.743l0,0C519.44,474.287,519.107,474.62,518.697,474.62z"/>
		<g>
			<path fill="#102051" d="M525.395,522.237l-0.484-0.105c0.039-0.175,3.795-17.494,1.881-22.433l-0.136-0.35l0.374,0.013
				c0.468,0.015,47.004,1.538,70.183,2.215l-0.014,0.494c-22.098-0.645-65.423-2.059-69.825-2.203
				C529.063,505.327,525.548,521.535,525.395,522.237z"/>
		</g>
		<rect x="112.81" y="774.838" fill="#5C81AA" width="620.898" height="1.705"/>
		<g>
			<g>
				<g>
					<polygon fill="#102051" points="328.575,518.203 271.87,518.203 280.537,482.451 337.242,482.451 					"/>
					<polygon fill="#4078C9" points="326.3,518.203 269.594,518.203 278.262,482.451 334.967,482.451 					"/>
					<rect x="269.594" y="518.203" fill="#102051" width="82.77" height="4.36"/>
					<polygon fill="#102051" points="275.497,493.856 332.833,493.856 331.902,498.009 274.49,498.009 					"/>
				</g>
				<g>
					<g>
						<path fill="#FFFFFF" d="M430.925,335.698h-94.176c-0.001,0.153-0.002,0.304-0.002,0.448c0,0.988-1.04,1.744-1.96,1.669
							c-1.036-0.084-1.669-0.978-1.669-1.96c0-0.052-0.001-0.104-0.001-0.157h-72.87v1.448c0,0.988-1.04,1.744-1.96,1.669
							c-1.036-0.084-1.669-0.978-1.669-1.96v-1.157H200.57c-1.404,0-2.548,1.143-2.548,2.547v152.84
							c0,1.404,1.144,2.547,2.548,2.547h230.354c1.404,0,2.548-1.143,2.548-2.547v-152.84
							C433.473,336.84,432.329,335.698,430.925,335.698z"/>
						<path fill="#102051" d="M430.925,335.45h-94.174c-0.001,0.17-0.003,0.334-0.004,0.495h94.178c1.268,0,2.3,1.031,2.3,2.299
							v152.839c0,1.269-1.032,2.301-2.3,2.301H200.57c-1.268,0-2.299-1.032-2.299-2.301V338.245c0-1.268,1.031-2.299,2.299-2.299
							h132.554c-0.001-0.031-0.007-0.06-0.007-0.091c0-0.135-0.002-0.27-0.002-0.404H200.57c-1.543,0-2.794,1.251-2.794,2.794
							v152.839c0,1.544,1.251,2.795,2.794,2.795h230.355c1.543,0,2.795-1.251,2.795-2.795V338.245
							C433.72,336.701,432.468,335.45,430.925,335.45z"/>
					</g>
					<path fill="#5582CF" d="M426.799,493.879H200.545c-1.53,0-2.77-1.24-2.77-2.77V338.22c0-1.53,1.24-2.77,2.77-2.77h226.253
						c1.53,0,2.771,1.24,2.771,2.77v152.889C429.569,492.639,428.329,493.879,426.799,493.879z"/>
					<g>
						<path fill="#356AB0" d="M426.799,335.698c0,0-117.834,0.29-117.84,0.296c-0.107,0.209-108.414-0.296-108.414-0.296
							c-1.391,0-2.522,1.131-2.522,2.522v152.889c0,1.391,1.132,2.522,2.522,2.522h226.254c1.392,0,2.523-1.132,2.523-2.522V338.22
							C429.322,336.829,428.19,335.698,426.799,335.698z"/>
						<g>
							<path fill="#102051" d="M426.799,335.45v0.495c1.255,0,2.275,1.021,2.275,2.275v152.889c0,1.254-1.021,2.275-2.275,2.275
								H200.545c-1.254,0-2.274-1.021-2.274-2.275V338.22c0-1.254,1.021-2.275,2.274-2.275v-0.495c-1.529,0-2.77,1.24-2.77,2.77
								v152.889c0,1.529,1.24,2.77,2.77,2.77h226.254c1.53,0,2.771-1.24,2.771-2.77V338.22
								C429.569,336.69,428.329,335.45,426.799,335.45z"/>
						</g>
					</g>
					
						<ellipse fill="none" stroke="#80AACF" stroke-width="0.8667" stroke-linecap="round" stroke-miterlimit="10" cx="313.672" cy="414.665" rx="9.116" ry="12.484"/>
					<g>
						<path fill="#102051" d="M241.232,494.126h-39.734c-2.189,0-3.97-1.78-3.97-3.97v-86.162h0.494v86.162
							c0,1.916,1.56,3.476,3.476,3.476h39.734V494.126z"/>
					</g>
					<g>
						<path fill="#80AACF" d="M223.942,404.062c-0.111,0-0.222-0.043-0.307-0.127c-0.169-0.17-0.169-0.443,0-0.613l50.636-50.635
							c0.17-0.169,0.443-0.169,0.613,0c0.169,0.169,0.169,0.444,0,0.613l-50.636,50.635
							C224.164,404.019,224.054,404.062,223.942,404.062z"/>
					</g>
					<g>
						<path fill="#80AACF" d="M207.848,430.355c-0.111,0-0.222-0.043-0.307-0.127c-0.169-0.17-0.169-0.443,0-0.613l82.825-82.825
							c0.17-0.169,0.443-0.169,0.613,0c0.169,0.169,0.169,0.444,0,0.613l-82.825,82.825
							C208.069,430.313,207.959,430.355,207.848,430.355z"/>
					</g>
					<g>
						<path fill="#80AACF" d="M352.364,481.002c-0.111,0-0.222-0.043-0.307-0.127c-0.169-0.17-0.169-0.443,0-0.613l59.761-59.761
							c0.17-0.168,0.443-0.168,0.613,0c0.169,0.17,0.169,0.443,0,0.613l-59.761,59.761
							C352.586,480.959,352.476,481.002,352.364,481.002z"/>
					</g>
					<g>
						<path fill="#80AACF" d="M371.396,474.311c-0.111,0-0.222-0.043-0.307-0.127c-0.169-0.17-0.169-0.443,0-0.613l32.611-32.611
							c0.17-0.168,0.443-0.168,0.613,0c0.169,0.17,0.169,0.443,0,0.613l-32.611,32.611
							C371.618,474.268,371.508,474.311,371.396,474.311z"/>
					</g>
					<g>
						<path fill="#80AACF" d="M376.763,479.122c-0.111,0-0.224-0.043-0.309-0.129c-0.168-0.17-0.166-0.444,0.004-0.613
							l40.286-39.847c0.169-0.166,0.444-0.168,0.613,0.004c0.168,0.17,0.166,0.444-0.004,0.613l-40.286,39.847
							C376.983,479.08,376.873,479.122,376.763,479.122z"/>
					</g>
				</g>
			</g>
			<g>
				<rect x="340.652" y="493.609" fill="#102051" width="69.119" height="0.494"/>
			</g>
			<g>
				<polygon fill="#102051" points="269.842,522.563 269.348,522.563 269.348,518.203 275.257,493.798 275.737,493.915 
					269.835,518.262 				"/>
			</g>
		</g>
		<g>
			<path fill="#FFFFFF" d="M327.102,531.004c-5.419,0-9.545-1.725-12.269-5.132c-4.735-5.922-5.229-16.623-1.468-31.808l0.066-0.268
				l0.48,0.119l-0.066,0.268c-3.723,15.027-3.261,25.584,1.374,31.379c2.714,3.396,6.896,5.064,12.422,4.941
				c14.795-0.312,24.397-4.887,30.752-7.914c3.829-1.825,6.601-3.143,8.799-2.778l-0.08,0.488c-2.063-0.343-4.759,0.95-8.506,2.736
				c-6.393,3.046-16.053,7.648-30.955,7.962C327.467,531.002,327.283,531.004,327.102,531.004z"/>
		</g>
		<g>
			<path fill="#FFFFFF" d="M272.782,531.216c-2.021,0-4.678-0.693-6.032-2.657c-1.171-1.696-1.661-4.896,2.648-10.506l0.393,0.301
				c-3.268,4.255-4.179,7.686-2.634,9.924c1.661,2.407,5.612,2.738,7.262,2.242c6.072-1.826,17.681-26.801,18.319-37.026
				l0.494,0.031c-0.663,10.614-12.309,35.556-18.671,37.47C274.096,531.134,273.477,531.216,272.782,531.216z"/>
		</g>
		<rect x="311.115" y="493.509" fill="#FFFFFF" width="4.632" height="2.424"/>
		<rect x="290.67" y="493.509" fill="#FFFFFF" width="4.632" height="2.424"/>
		<rect x="488.551" y="470.775" fill="#DADFF2" width="10.821" height="2.267"/>
		<g>
			<path fill="#102051" d="M575.672,460.046l-0.497-1.843c-0.044-0.162-4.423-16.411-6.582-25.972l0.494-0.111
				c1.724,7.634,4.865,19.54,6.079,24.095v-4.956h0.506V460.046z"/>
		</g>
		<g>
			<path fill="#102051" d="M565.215,480.389l-3.692-1.642l-0.01-0.152c-0.007-0.097-0.604-9.706,0.234-19.851l0.504,0.041
				c-0.777,9.409-0.315,18.356-0.243,19.624l3.412,1.517L565.215,480.389z"/>
		</g>
		<g>
			
				<rect x="560.537" y="480.708" transform="matrix(0.5801 0.8145 -0.8145 0.5801 628.3323 -257.0121)" fill="#102051" width="5.85" height="0.506"/>
		</g>
	</g>
	<circle fill="#0D172B" cx="423.259" cy="766.9" r="7.938"/>
</g>
</svg>
